# xmcd
#
# Track frame offsets: 
#        150
#        19525
#        43085
#        74827
#        90865
#        112205
#        136897
#        157035
#        183657
#        210897
#        230192
#
# Disc length: 3508 seconds
#
# Revision: 6
# Processed by: cddbd v1.5.2PL0 Copyright (c) Steve Scherf et al.
# Submitted via: ExactAudioCopy v1.0b3
#
DISCID=9a0db20b
DTITLE=Blues Company - Hot And Ready To Serve
DYEAR=2007
DGENRE=Blues
TTITLE0=Till The Lights Go Out
TTITLE1=My Guitar And Me
TTITLE2=Kids
TTITLE3=Hollywood
TTITLE4=Soon Or Later
TTITLE5=Plastic People
TTITLE6=Shake It Don't Break It
TTITLE7=Dark Day
TTITLE8=Doin' It Right
TTITLE9=The People
TTITLE10=Hideaway - Peter Gunn Theme
EXTD=YEAR: 2007
EXTT0=
EXTT1=
EXTT2=
EXTT3=
EXTT4=
EXTT5=
EXTT6=
EXTT7=
EXTT8=
EXTT9=
EXTT10=
PLAYORDER=
